<?xml version="1.0" encoding="UTF-8"?>
<!DOCTYPE svg PUBLIC "-//W3C//DTD SVG 1.1//EN" "http://www.w3.org/Graphics/SVG/1.1/DTD/svg11.dtd">
<!-- Creator: CorelDRAW -->
<svg xmlns="http://www.w3.org/2000/svg" xml:space="preserve" width="96.8932mm" height="96.8932mm" version="1.1" style="shape-rendering:geometricPrecision; text-rendering:geometricPrecision; image-rendering:optimizeQuality; fill-rule:evenodd; clip-rule:evenodd"
viewBox="0 0 8992.62 8992.62"
 xmlns:xlink="http://www.w3.org/1999/xlink"
 xmlns:xodm="http://www.corel.com/coreldraw/odm/2003">
 <defs>
  <style type="text/css">
   <![CDATA[
    .str0 {stroke:red;stroke-width:81.57;stroke-miterlimit:22.9256}
    .fil1 {fill:none;fill-rule:nonzero}
    .fil0 {fill:navy;fill-rule:nonzero}
    .fil3 {fill:#00BAFF;fill-rule:nonzero}
    .fil5 {fill:#F9F9F9;fill-rule:nonzero}
    .fil4 {fill:white;fill-rule:nonzero}
    .fil2 {fill:url(#id0);fill-rule:nonzero}
   ]]>
  </style>
  <linearGradient id="id0" gradientUnits="userSpaceOnUse" x1="4763.1" y1="6473.58" x2="5546.8" y2="9571.69">
   <stop offset="0" style="stop-opacity:1; stop-color:#00A2FF"/>
   <stop offset="1" style="stop-opacity:1; stop-color:#000020"/>
  </linearGradient>
 </defs>
 <g id="Camada_x0020_1">
  <metadata id="CorelCorpID_0Corel-Layer"/>
  <g id="_53971498272">
   <path id="Guia_Diretoria_nautica" class="fil0" d="M7283.58 1152.74c-1731.72,-1443.11 -4279.12,-1327.53 -5873.23,266.67 -92.96,92.96 -182.52,191.56 -266.44,292.04 -1443.21,1731.55 -1327.61,4278.97 266.58,5873.08 92.96,92.96 191.56,182.52 292.04,266.44 1731.55,1443.21 4278.95,1327.61 5873.06,-266.58 92.96,-92.96 182.52,-191.56 266.44,-292.04 1443.21,-1731.56 1327.61,-4278.97 -266.58,-5873.08 -92.96,-92.96 -191.56,-182.52 -292.04,-266.45l0.17 -0.08z"/>
   <path id="Guia_Diretoria_nautica-7" class="fil1" d="M1653.12 7644.53c780.68,688.66 1786.52,1069.5 2827.83,1069.5 1225.46,0 2393.02,-526.92 3203.75,-1445.63 688.64,-780.46 1069.48,-1786.31 1069.48,-2827.62 0,-1225.48 -526.92,-2393.04 -1445.63,-3203.77 -780.46,-688.64 -1786.31,-1069.48 -2827.6,-1069.48 -1225.48,0 -2393.04,526.92 -3203.77,1445.63 -688.64,780.46 -1069.48,1786.31 -1069.48,2827.62 0,1225.48 526.92,2393.04 1445.63,3203.77l-0.21 -0.02z"/>
   <path id="path8117-6" class="fil2" d="M3135.8 5782.14c-122.49,2.13 -250.73,16.99 -386,46.91 -596.33,131.87 -1327.06,558.6 -1890.12,1084.05 245.03,368.43 546.54,698.93 890.73,977.28 776.15,621.73 1742.56,961.28 2738.34,961.28 1323.94,0 2578,-599.81 3407.27,-1628.59 53.78,-67.72 107.69,-138.51 157.31,-209.29 -632.44,113.1 -1257.2,189.03 -1777.45,110.79 -1307.75,-196.65 -1955.92,-1362.98 -3140,-1342.42l-0.07 -0.01z"/>
   <g id="g18">
    <path id="path17" class="fil3" d="M2045.85 4922.16c309.08,4.07 616.65,111.16 926.36,165.56 141.59,24.87 284.94,41.24 428.86,41.24 95.32,0 190.74,-15.42 285.94,-8.78 -225.84,51.48 -447.89,74.93 -679.08,49.3 -274.86,-30.48 -539.22,-119.8 -813.03,-157.12 -190.12,-25.91 -380.99,-16.96 -571.84,-8.34l0 -8.92c141.46,-55.34 282.28,-74.8 422.78,-72.95l0.01 0z"/>
    <path id="path16" class="fil3" d="M1917.94 4691.66c-354.6,4.14 -675.54,157.55 -1018.59,221.72 -172.31,32.23 -336.77,25.51 -509.25,1.29l0 8.92c493.99,200.8 1010.96,-59.45 1509.95,-87.29 186.97,-10.43 370.87,5.78 553.94,44.08 339.99,71.1 674.87,191.34 1027.51,154.19 200.12,-21.08 383.17,-96.42 553.94,-200.33 -94.8,18.7 -182.73,62.8 -276.97,85.03 -149.84,35.34 -311.42,40.66 -464.6,27.05 -466.1,-41.43 -903.64,-260.18 -1375.95,-254.67z"/>
    <path id="path15" class="fil4" d="M622.37 3851.44c119.12,205.48 277.3,395.66 425.5,580.76 59.97,74.9 126.06,185.84 211.17,233.62 63.74,35.78 147.78,-4.49 212.13,-21.24 143.03,-37.24 290.13,-59 437.78,-65.18 393.32,-16.46 771.93,146.86 1152.59,218.8 115.25,21.78 288.77,70.46 401.62,22.73 66.83,-28.26 119.44,-90.42 161.29,-147.48l-1090.04 -260.95 -1447.41 -391.65 -464.64 -169.4z"/>
    <path id="path13" class="fil4" d="M2507.61 2591.65c42.56,199.12 63.3,395.02 128.82,589.67 124.62,370.23 323.28,727.64 573.46,1027.51 86.29,103.42 187.59,189.17 280.53,285.89 -183.45,-23.81 -364.82,-77.87 -545.02,-118.94 -77.17,-17.59 -180.41,-25.93 -242.06,-79.95 -39.02,-34.19 -59.88,-85.45 -80.72,-131.7 -37.99,-84.31 -71.7,-170.84 -99.43,-259.09 -135.88,-432.37 -109.21,-876.54 -15.58,-1313.4z"/>
    <path id="path12" class="fil4" d="M2498.69 2395.06c-545.27,339.87 -1073.23,935.62 -1098.97,1608.27 279,-63.12 548.34,-60.21 813.03,62.54 93.2,43.22 172.85,106.18 259.13,160.86 -157.23,-420.73 -214.84,-850.69 -130.26,-1295.57 21.38,-112.48 53.73,-222.55 91.36,-330.6 23.71,-68.07 55.94,-133.58 65.71,-205.51l-0.01 0z"/>
   </g>
   <g id="g8117">
    <polygon id="polygon1" class="fil4" points="3992.42,2263.46 4026.22,2297.26 4059.91,2331.06 4093.71,2297.26 4127.52,2263.46 4093.71,2229.66 4059.91,2195.97 4026.22,2229.66 "/>
    <path id="path1-5" class="fil4" d="M4232.06 2670.02c0,-613.68 722.07,-1121.89 1664.14,-1210.99 -149.15,-26.83 -306.78,-41.24 -469.76,-41.24 -937.42,0 -1697.36,474.99 -1697.36,1060.79 0,409 370.33,763.77 912.69,940.91 -256.83,-207.11 -409.82,-467.2 -409.82,-749.47l0.11 -0.01zm-42.52 -372.76l-95.84 0 0 95.84 -23.69 23.69 0 43.8 23.69 0 -33.8 33.8 -33.8 -33.8 23.69 0 0 -43.8 -23.69 -23.69 0 -95.84 -95.84 0 -23.69 -23.69 -43.8 0 0 23.69 -33.8 -33.8 33.8 -33.8 0 23.69 43.8 0 23.69 -23.69 95.84 0 0 -95.84 23.69 -23.7 0 -43.8 -23.69 0.01 33.8 -33.8 33.8 33.8 -23.69 0 0 43.79 23.69 23.69 0 95.84 95.84 0.01 23.69 23.69 43.8 0 0 -23.69 33.8 33.8 -33.8 33.8 0 -23.69 -43.8 0 -23.69 23.69z"/>
    <path id="path2" class="fil4" d="M3969.88 1841.68c-187.6,-42.05 -407.5,-48.09 -407.5,-48.09 -206.19,-2.55 -218.26,86.07 -218.26,86.07 -243.71,7.9 -178.19,146.6 -178.19,146.6 0,0 57.15,-95.71 384.73,34.62 0,0 92.47,41.59 180.64,118.95 47.74,-122.43 129.53,-236.51 238.72,-338.26l-0.13 0.11zm-480.22 51.69c0,0 -7.43,13.24 -19.29,12.66l-63.31 -3.14c0,0 42.75,-42.86 73.88,-41.36 0,0 45.19,-0.12 49.83,10.8 0,0 -27.76,-6.15 -41.12,21.02l0.01 0.01z"/>
   </g>
   <path id="Guia_clubaer" class="fil1" d="M734.39 3638.22c429.65,-1718.43 1974.58,-2924.85 3746.27,-2924.85 315.39,0 631.24,39.13 936.75,115.5 1718.42,429.49 2924.84,1974.41 2924.84,3746.1 0,315.39 -39.13,631.26 -115.5,936.76 -429.49,1718.42 -1974.41,2924.84 -3746.08,2924.84 -315.39,0 -631.26,-39.13 -936.76,-115.5 -1718.42,-429.49 -2924.84,-1974.41 -2924.84,-3746.1 0,-315.39 39.13,-631.26 115.5,-936.76l-0.17 0.01z"/>
   <g id="g19">
    <g id="g11">
     <path id="path9" class="fil4" d="M5910.01 3624.56c-24.9,2.38 -47.99,18.78 -69.01,31.08 -38.63,22.6 -77.44,44.88 -116.21,67.24 -92.73,53.49 -189.21,111.47 -270.84,181.19 -55.46,47.38 -106.45,104.4 -152.56,160.76 -24.26,29.66 -50.27,58.18 -70.55,90.79 104.74,-49.7 191.55,-135.25 290.55,-195.15 108.17,-65.45 222.85,-119.87 337.79,-172.08 80.51,-36.58 160.38,-73.93 243.3,-104.89 -37.75,-18.63 -79.95,-29.19 -119.85,-42.35 -22.7,-7.48 -48.23,-18.92 -72.61,-16.59z"/>
     <path id="path8" class="fil4" d="M6545.58 3621c-21.26,-0.45 -42.34,9.5 -61.77,16.97l-90.79 34.67c-107.68,41.7 -216.44,80.86 -323.21,124.84 -89.64,36.93 -181.05,72.39 -268.77,113.66 -181.54,85.43 -357.9,186.53 -530.25,288.96 -100.77,59.89 -195.41,124.58 -290.55,193.04 -74.46,53.59 -149.26,107.68 -214.24,172.85l188.82 -42.88 348.68 -81.29 1027.8 -233.81 334.1 -75.2 207.05 -34.1 301.44 -45.76 315.96 -27.48 265.13 -0.62 137.98 3.26 52.08 8.58 -3.83 39.09 -31.46 94.34 -85.18 250.6 -40.53 130.74 305.65 -378.17 101.25 -126.71 68.83 -94.39 65.37 -76.26c-115.05,0 -230.03,3.47 -344.98,3.65 -157.02,0.24 -315.35,-3.73 -472.17,4.32 -54.41,2.79 -109.2,11.29 -163.4,17.08 -70.13,7.49 -140.89,13.22 -210.64,23.74 -99.84,15.06 -198.55,38.4 -297.79,56.88 -405.5,75.48 -806.15,169.75 -1202.13,285.22 -162.93,47.51 -324.84,98.94 -486.66,150.07 -67.8,21.42 -134.79,46.96 -203.4,65.56 38.22,-30.69 87.02,-48.31 130.74,-69.88 84.52,-41.71 169.77,-82.01 254.24,-123.84 51.68,-25.59 103.05,-53.36 156.16,-75.83 81.83,-34.62 167.22,-61.81 250.6,-92.47 200.81,-73.84 405.6,-139.72 613.75,-190.17 185.03,-44.84 373.02,-77.23 559.32,-116.07 -77.07,-54.95 -167.6,-95.6 -250.6,-141.01 -32.81,-17.95 -73.94,-51.41 -112.56,-52.23l-0.02 0.01z"/>
     <path id="path7" class="fil4" d="M6183.2 3513.38c-12.07,1.99 -22.71,8.3 -25.37,19.81 -2,8.68 -1.33,18.05 -0.96,26.86 0.65,15.78 2.15,31.49 3.74,47.19 14.92,-0.03 31.04,1.25 45.66,-2.26 28.85,-6.92 33.93,-69.69 10.84,-85.51 -8.38,-5.74 -21.84,-8.07 -33.91,-6.09z"/>
     <path id="path6" class="fil4" d="M6138.78 3512.81l-54.43 7.24 0 87.19c14.28,-0.12 33.21,1.92 45.61,-6.66 22.19,-15.36 12.07,-65.53 8.83,-87.77z"/>
     <path id="path5" class="fil4" d="M5811.93 3360.25l0 141.67c191.25,0 382.61,-11.93 573.85,-14.67 33.94,-0.49 67.7,-3.45 101.67,-3.5 17.88,-0.03 41.44,3.29 57.89,-5.23 11.66,-6.04 15.15,-19.25 16.5,-31.37 1.48,-13.33 1.81,-31.74 -10.6,-40.29 -13.21,-9.1 -34.04,-6.72 -49.25,-7.63 -37.54,-2.25 -75.1,-4.28 -112.62,-7.1 -102.72,-7.73 -205.84,-11.99 -308.68,-18.32 -89.47,-5.51 -179.1,-13.57 -268.77,-13.57z"/>
     <path id="path4" class="fil4" d="M5782.91 3353c-27.55,13.92 -75.58,30.27 -88.97,60.34 -9.24,20.76 -5.47,48.23 -5.47,70.41l98.03 18.18 -3.6 -148.92z"/>
    </g>
    <path id="path3-8" class="fil3" d="M4154.37 4353.96c43.78,80.24 102.86,146.46 167.05,210.64 96.28,96.27 202.16,176.39 323.26,239.09 34.54,17.88 68.63,38.35 105.32,51.56 99.2,35.72 205.19,64.72 308.68,84.94 37.02,7.24 76.08,4.8 112.62,13.96 32.46,8.13 57.09,33.12 83.5,52.18 42.47,30.63 87.38,62.43 134.39,85.65 61.02,30.15 129.64,59.45 196.11,74.82 96.28,22.25 202.86,26.62 301.44,25.9 97.89,-0.71 195.04,-21.02 290.55,-40 76.2,-15.15 153.83,-29.06 228.82,-49.4 146.56,-39.76 290.5,-90.83 435.82,-134.96 187.42,-56.92 376.56,-109.64 566.56,-157.27 116.85,-29.29 232.96,-59.8 352.27,-77.89 82.94,-12.58 167,-13 250.6,-16.69 60.54,-2.67 121.01,-8.71 181.58,-10.26l0 -3.65c-137.17,-18.3 -279.25,-27.3 -417.64,-16.84 -271.98,20.57 -536.72,94.75 -798.98,165.32 -244.36,65.75 -490.67,128.37 -740.9,167.05 -73.72,11.4 -147.23,28.27 -221.53,35.34 -130.48,12.43 -262.25,8.53 -392.22,-7.86 -69.21,-8.73 -130.26,-22.25 -196.16,-45.27 -29.84,-10.42 -60.05,-19.68 -87.15,-36.26l279.66 -13.52 297.79 -17.61 286.9 -43.45 319.61 -49.54 414.04 -84.5 268.72 -42.2 424.93 -63.45 381.34 -12.57 446.7 8.06 130.74 13.72 0 -3.6c-117.23,-21 -229.52,-59.6 -348.63,-72.47 -195.1,-21.08 -392.99,-13.64 -588.38,-4.41 -138.87,6.56 -279.25,11.46 -417.64,24.94 -286.81,27.94 -571.77,74.36 -857.11,113.95 -84.67,11.75 -169.16,26.61 -254.24,35.25 -259.18,26.33 -521.45,26.14 -780.8,5.61 -80.8,-6.39 -163.18,-10.16 -243.36,-22.21 -129.78,-19.5 -254.26,-55.77 -377.69,-99.08 -53.2,-18.66 -108.79,-35.12 -159.81,-59.23 -73.47,-34.72 -147.8,-71.92 -217.89,-113.04 -62.75,-36.82 -123.31,-79.03 -188.87,-110.74l0.03 0z"/>
   </g>
   <circle id="Circulo_vermelho" class="fil1 str0" transform="matrix(2.64845E-014 1 -1 2.64845E-014 4496.31 4496.31)" r="4455.52"/>
   <path class="fil1" d="M734.39 3589.1c429.65,-1718.42 1974.58,-2924.84 3746.27,-2924.84 315.39,0 631.24,39.13 936.75,115.5 1718.42,429.49 2924.84,1974.41 2924.84,3746.1 0,315.39 -39.13,631.26 -115.5,936.76 -429.49,1718.42 -1974.41,2924.84 -3746.08,2924.84 -315.39,0 -631.26,-39.13 -936.76,-115.5 -1718.42,-429.49 -2924.84,-1974.41 -2924.84,-3746.1 0,-315.39 39.13,-631.26 115.5,-936.76l-0.17 0z"/>
   <path id="text1" class="fil4" d="M563.94 2962.26l113.39 33.15 -2.71 7.38c-37.05,-2.41 -65.88,3.2 -87.31,16 -21.1,13.48 -36.59,32.9 -45.96,58.48 -7.93,21.64 -9.72,43.3 -5.2,64.48 4.83,21.86 16.99,41.93 37.5,60.6 20.5,18.66 48.52,35.06 83.95,48.04 29.51,10.81 56.89,15.25 81.96,13.84 25.07,-1.43 47.02,-9.56 65.36,-24.61 18.33,-15.04 32.17,-34.52 40.99,-58.62 7.75,-21.15 10.16,-41.47 7.26,-60.94 -3.41,-19.67 -14.63,-43.85 -34.66,-72.95l7.62 -5.58c23.07,26.86 37.2,53.79 42.55,80.3 5.36,26.51 2.7,55.11 -8.29,85.12 -19.63,53.61 -55.12,88.04 -105.78,102.96 -37.62,11.33 -77.18,9.67 -117.52,-5.1 -32.46,-11.89 -59.77,-30.26 -81.41,-54.92 -21.84,-24.18 -35.6,-52.09 -41.49,-83.25 -5.39,-30.98 -2.51,-61.74 8.48,-91.74 8.65,-23.6 22.52,-44.74 42.8,-63.54 5.78,-5.13 9.55,-9.34 10.64,-12.29 1.62,-4.43 1.41,-8.41 -0.78,-13.11 -2.5,-5.37 -7.81,-10.66 -14.47,-15.34l3.06 -8.35z"/>
   <path id="_1" class="fil4" d="M947.67 2739.22l4.96 -6.94 73.13 66.36 -113.3 243.68 -8.55 -3.97 5.52 -11.88c6.18,-13.29 6.32,-24.78 0.43,-34.46 -3.68,-5.75 -14.42,-12.48 -32.46,-20.87l-202.84 -94.3c-19.47,-9.06 -32.71,-12.9 -39.93,-11.05 -9.51,3.07 -17.04,10.56 -22.55,22.43l-5.52 11.88 -8.56 -3.98 66.26 -142.5 8.56 3.97c-7.73,16.62 -11.83,29.17 -11.59,37.37 0.23,8.2 1.82,14.71 5.94,19.52 3.65,4.58 14.87,11.53 33.39,20.14l197.61 91.88c12.83,5.96 22.51,8.73 28.35,8.57 4.22,-0.35 7.92,-2.1 11.11,-5.23 3.18,-3.15 9.66,-14.57 19.16,-35l10.6 -22.8c11.27,-24.22 17.33,-42.21 18.41,-53.25 0.84,-11.74 -1.14,-23.65 -6.63,-35.43 -5.28,-12.27 -15.77,-26.98 -31.49,-44.1z"/>
   <path id="_2" class="fil4" d="M873.09 2376.82l-8.2 -4.68 60.79 -106.45 8.19 4.68 -6.24 10.92c-7.02,12.28 -7.2,24.23 -0.83,36.32 2.98,5.33 12.41,13.11 29.24,22.73l122.37 69.88c30.03,17.14 51.67,33.12 64.86,49.11 13.46,15.52 20.8,35.41 22.76,59.44 2.15,24.75 -5.44,51.79 -22.84,82.27 -18.7,32.75 -38.91,54.4 -59.89,64.73 -21.24,10.79 -43.46,13.79 -66.73,10.15 -15.78,-2.98 -41.64,-14.73 -78.04,-35.51l-117.82 -67.28c-18.65,-10.65 -32.04,-14.68 -40.82,-13.05 -9.02,2.09 -16.43,8.71 -22.92,20.09l-6.5 11.37 -8.19 -4.68 74.55 -130.56 8.19 4.68 -6.76 11.83c-7.02,12.28 -8.11,23.71 -3.23,33.14 3.12,7.2 13,15.26 29.83,24.86l131.46 75.06c11.38,6.5 25.81,12.93 41.86,19.68 16.31,6.3 30.48,8.97 42.24,8.45 11.3,-0.79 23.26,-4.83 34.69,-12.18 11.69,-7.79 21.69,-18.97 30.53,-34.44 11.16,-19.56 16.75,-39.9 16.94,-60.3 0.45,-20.86 -4.5,-37.56 -14.56,-50.55 -10.28,-13.7 -31.46,-29.42 -63.31,-47.6l-121.92 -69.62c-18.65,-10.65 -31.52,-15.58 -38.86,-14.35 -9.75,2.28 -17.87,9.1 -24.36,20.47l-6.49 11.38z"/>
   <path id="_3" class="fil4" d="M1224.08 2134.76c17.96,-16.91 34.52,-27.15 50.84,-30.55 22.44,-4.92 42.87,-0.43 61.44,12.33 14.25,9.78 24.67,23.3 31.4,41.25 6.74,17.97 7.93,36.59 3.01,56.72 -4.62,19.69 -17.91,45.52 -40.15,77.91l-92.51 134.74 -7.77 -5.34 7.41 -10.8c8.01,-11.66 10.05,-22.96 6.26,-33.19 -2.81,-7.01 -12.29,-15.42 -28.26,-26.4l-184.84 -126.9c-17.7,-12.16 -30.13,-18.14 -37.84,-17.09 -9.9,1.47 -18.26,7.16 -25.67,17.96l-7.41 10.79 -7.78 -5.34 84.8 -123.51c15.71,-22.89 30.19,-40.27 43.13,-51.71 19.29,-17.9 39.33,-27.66 59.99,-29.99 20.66,-2.34 39.19,2.13 56.05,13.7 14.25,9.78 23.94,23.43 29.24,39.77 5.3,16.35 4.6,34.94 -1.35,55.64zm-87.14 102.84c4.43,-4.59 9.44,-10.04 14.33,-16.22 5.17,-6.62 10.64,-13.65 15.97,-21.43 14.24,-20.73 22.32,-38.06 25.11,-51.39 2.51,-12.89 1.23,-25.85 -4.28,-37.25 -5.23,-11.84 -13.37,-21.25 -24.17,-28.67 -16.84,-11.55 -35.55,-14.87 -56.69,-9.05 -21.29,5.08 -40.84,21.53 -58.63,47.43 -9.78,14.26 -17.09,27.67 -21.78,40.98l110.13 75.6zm136.48 93.7c15.16,-13.74 27.84,-28.54 38.81,-44.52 17.49,-25.48 25.23,-48.76 23.19,-69.86 -2.47,-21.4 -12.27,-37.66 -29.11,-49.23 -11.22,-7.7 -23.68,-11.8 -38.19,-12.87 -14.51,-1.07 -29.53,3.23 -44.34,12.76 -15.54,9.67 -30.12,24.44 -44.06,44.73 -5.93,8.64 -10.53,16.29 -14.68,22.33 -4.02,6.78 -6.86,11.81 -8.66,16.3l117.04 80.35z"/>
   <path id="_4" class="fil4" d="M1258.19 1846.6l102.75 90.99 50.35 -56.86c13.21,-14.91 19.54,-26.78 19.74,-35.71 0.01,-11.87 -7.1,-25.17 -21.26,-38.41l6.6 -7.45 90.2 79.88 -6.6 7.45c-13.93,-9.55 -23.92,-14.88 -28.83,-16.45 -6.4,-1.46 -13.41,-0.66 -20.67,2 -6.86,3.02 -15.72,9.86 -25.45,20.85l-50.36 56.86 85.89 76.06c11.37,10.07 18.78,15.94 22.18,16.84 3.03,1.31 7.13,1.42 10.74,-0.28 3.65,-0.96 8.6,-4.97 15.2,-12.43l38.9 -43.93c12.84,-14.51 21.4,-26.52 25.34,-34.93 3.6,-8.01 5.59,-18.14 4.52,-29.59 -0.55,-15.18 -5.37,-33.45 -14.16,-55.92l6.95 -7.85 45.31 80.01 -177.13 200.01 -7.06 -6.26 7.99 -9.02c5.56,-6.27 8.84,-13.15 10.97,-21.08 1.46,-6.39 1.15,-11.57 -1.77,-16.97 -2.89,-4.64 -10.42,-12.72 -23.37,-24.19l-168.64 -149.34c-16.47,-14.59 -28.06,-22.04 -34.76,-22.39 -9.26,0.19 -18.56,5.95 -27.94,16.54l-7.99 9.03 -7.06 -6.26 177.13 -200.01 59.3 47.61 -6.6 7.45c-16.16,-9.4 -28,-15 -36.22,-15.98 -7.87,-1.38 -15.97,-0.15 -24.61,4.08 -6.48,3.37 -14.91,11.3 -26.36,24.24l-63.21 71.38z"/>
   <path id="_5" class="fil4" d="M1735.08 1800.05l-6.25 -7.06 9.82 -8.67c10.99,-9.72 15.71,-20.19 14.18,-31.42 -1.08,-6.75 -8.22,-17.21 -21.05,-31.73l-148.49 -167.99c-14.22,-16.09 -24.82,-24.91 -32.17,-26.11 -9.96,-0.98 -19.84,2.86 -29.65,11.53l-9.81 8.68 -6.25 -7.07 105.97 -93.66c38.86,-34.34 72.12,-56.05 100.11,-64.71 28.05,-9.4 57.37,-9.46 87.93,0.59 30.21,9.65 57.64,28.05 81.59,55.13 31.92,36.12 47.63,76.06 46.81,119.43 -0.8,48.94 -25.94,95.63 -76.57,140.38l-116.19 102.68zm57.53 -84.4c19.22,-10.69 34.69,-20.87 45.68,-30.59 29.83,-26.36 44.8,-58.47 46.03,-96.62 1.24,-38.14 -13.92,-75.07 -45.5,-110.8 -31.57,-35.72 -66.36,-55.31 -104.36,-58.77 -38.01,-3.46 -72.17,8.54 -102.78,35.59 -11.39,10.06 -22.99,23.82 -34.4,40.2l195.32 220.99z"/>
   <path id="_6" class="fil4" d="M2132.34 1316l-107.77 80.68 14.09 58.16c3.55,14.36 7.42,23.89 11.18,28.92 3.45,4.61 7.65,6.72 14.35,6.93 6.71,0.21 16.67,-3.97 30.71,-13.18l5.65 7.55 -87.22 65.29 -5.65 -7.55c9.75,-10.57 15.42,-18.75 16.69,-24.92 1.68,-11.74 -0.08,-30.69 -6.77,-57.11l-73.38 -301.71 7.13 -5.34 269.44 158.87c21.79,12.48 38.01,19.3 48.39,20.05 10.37,0.75 21.37,-2.91 33.33,-10.54l5.64 7.55 -109.45 81.93 -5.65 -7.55c10.59,-8.58 16.57,-16.33 18.14,-22.09 1.26,-6.17 0.54,-11.53 -2.91,-16.14 -4.4,-5.87 -14.13,-13.63 -29.01,-22.13l-46.92 -27.7zm-17.17 -10.71l-130.79 -76.8 35.17 148.37 95.61 -71.57z"/>
   <path id="_7" class="fil4" d="M2523.35 1063.71l-116.79 66.97 6.91 59.44c1.78,14.68 4.45,24.62 7.58,30.07 2.87,5 6.78,7.59 13.4,8.62 6.64,1.03 17.02,-1.91 32.08,-9.34l4.7 8.18 -94.53 54.2 -4.69 -8.18c10.96,-9.31 17.58,-16.72 19.59,-22.7 3.09,-11.45 3.65,-30.48 0.22,-57.51l-36.13 -308.39 7.72 -4.43 248.11 190.46c20.11,15.04 35.38,23.79 45.59,25.79 10.2,2 21.58,-0.3 34.37,-6.42l4.69 8.19 -118.61 68.01 -4.69 -8.18c11.55,-7.23 18.42,-14.2 20.7,-19.72 2,-5.98 1.94,-11.37 -0.93,-16.37 -3.65,-6.37 -12.37,-15.26 -26.1,-25.49l-43.2 -33.21zm-15.74 -12.71l-120.48 -92.14 16.86 151.56 103.61 -59.42z"/>
   <path id="_8" class="fil4" d="M2661.25 752.56l58.32 124.23 68.75 -32.27c18.02,-8.46 28.55,-16.87 32.26,-24.98 4.71,-10.9 3.45,-25.92 -4.31,-43.69l9.01 -4.23 51.2 109.06 -9.02 4.23c-9.01,-14.28 -16.07,-23.13 -19.96,-26.52 -5.29,-3.88 -12.05,-5.91 -19.76,-6.34 -7.5,0.05 -18.35,2.82 -31.63,9.06l-68.75 32.28 48.74 103.84c6.46,13.75 10.93,22.07 13.7,24.25 2.27,2.39 6,4.13 9.98,3.99 3.73,0.57 9.87,-1.16 18.88,-5.38l53.11 -24.94c17.54,-8.23 30.15,-15.89 37.1,-22.05 6.48,-5.93 12.32,-14.45 15.87,-25.38 5.5,-14.15 8.31,-32.84 9.14,-56.96l9.49 -4.45 9.92 91.41 -241.84 113.52 -4.01 -8.53 10.91 -5.12c7.58,-3.56 13.33,-8.58 18.41,-15.02 3.88,-5.29 5.63,-10.17 5.09,-16.28 -0.81,-5.4 -4.53,-15.81 -11.88,-31.45l-95.71 -203.91c-9.36,-19.92 -17.04,-31.35 -23.05,-34.32 -8.58,-3.48 -19.41,-1.88 -32.2,4.13l-10.91 5.12 -4.01 -8.54 241.85 -113.53 35.59 67.2 -9.01 4.23c-11.11,-15.04 -19.77,-24.86 -26.93,-29.03 -6.68,-4.38 -14.61,-6.45 -24.22,-5.99 -7.28,0.53 -18.15,4.47 -33.8,11.81l-86.3 40.52z"/>
   <path id="_9" class="fil4" d="M3323.33 836.77l-86.88 32.37 -166.66 -111.21c-8.16,3.6 -14.54,5.98 -19.94,7.99 -1.97,0.73 -3.93,1.47 -6.39,2.39 -2.45,0.91 -4.9,1.82 -7.55,2.25l35.3 94.74c7.5,20.13 14.22,32.17 20.46,35.43 9.12,4.98 19.24,5.13 31.52,0.56l12.76 -4.76 3.29 8.84 -139.41 51.94 -3.29 -8.84 12.27 -4.58c13.75,-5.11 21.91,-13.2 24.51,-24.22 1.42,-6.68 -1.3,-18.52 -8.25,-37.18l-78.28 -210.1c-7.68,-20.61 -14.22,-32.16 -20.65,-35.91 -8.95,-4.49 -19.55,-4.45 -31.82,0.11l-12.28 4.58 -3.29 -8.84 118.3 -44.08c34.85,-12.98 60.8,-19.86 79.32,-21.16 18.21,-0.63 35.74,2.9 52.16,12.43 16.22,9.05 28.15,23.06 35.1,41.72 7.5,20.12 7.03,39.86 -0.26,59.35 -7.77,19.66 -24.05,37.46 -48.67,53.9l101.51 68.39c23.57,15.26 41.64,24.74 55.68,27.9 13.36,2.85 29.74,1.78 48.14,-2.84l3.29 8.84zm-292.9 -80.95c2.94,-1.1 5.4,-2 7.86,-2.92 1.96,-0.73 3.92,-1.47 5.39,-2.01 30.92,-11.52 51.94,-27.17 62.7,-46.27 10.77,-19.11 12.22,-39.22 4.54,-59.83 -7.68,-20.61 -20.1,-34.44 -37.62,-42.44 -17.52,-8.02 -36.59,-8.18 -57.69,-0.32 -9.33,3.47 -21.05,9.52 -35.67,18.32l50.48 135.48z"/>
   <path id="_10" class="fil4" d="M3408.74 448.08c43.37,-12.18 85.23,-6.52 126.35,17.85 40.97,23.86 68.59,60.18 82.46,109.6 14.31,50.94 9.91,97.34 -12.87,140.2 -22.42,42.21 -56.59,69.76 -101.97,82.5 -45.89,12.89 -89.27,7.66 -129.74,-16.34 -40.48,-24 -68.01,-61.99 -82.45,-113.42 -15.02,-53.46 -8.89,-101.43 17.92,-145.41 23.2,-37.53 56.42,-62.65 100.3,-74.96zm-0.09 19.07c-29.75,8.35 -50.34,26.11 -62.27,53.39 -14.91,34.12 -14.68,77.58 0.33,131.04 15.3,54.47 38.65,93.08 70.07,115.82 24.38,17.09 51.2,21.52 80.46,13.31 31.27,-8.78 53.6,-28.11 67.47,-58.12 13.74,-30.53 13.06,-71.68 -1.81,-124.64 -16,-56.99 -39.64,-96.61 -69.63,-118.11 -24.39,-17.1 -52.35,-21.75 -84.63,-12.69z"/>
   <path id="_11" class="fil4" d="M3627.25 398.9l93.26 -13.92 247.69 225.72 -29.48 -197.4c-3.16,-21.23 -7.17,-33.88 -12.69,-38.89 -7.23,-5.81 -17.62,-7.96 -31.6,-5.87l-11.4 1.7 -1.39 -9.32 119.16 -17.79 1.39 9.32 -11.92 1.78c-14.5,2.16 -24.24,7.86 -29.14,17.6 -2.78,6.24 -2.99,18.99 -0.13,38.15l43.17 289.11 -8.82 1.31 -267.64 -242.35 31.48 210.88c3.17,21.23 7.69,33.8 12.62,38.37 7.82,6.25 18.2,8.4 31.16,6.47l12.44 -1.86 1.39 9.33 -119.69 17.87 -1.39 -9.33 11.92 -1.77c15.03,-2.25 24.69,-8.45 29.15,-17.6 3.29,-6.32 2.99,-18.99 0.13,-38.15l-35.58 -238.33c-11.62,-10.46 -20.47,-16.55 -26.28,-19.92 -5.21,-2.92 -13.43,-4.88 -23.82,-7.03 -5.41,-0.78 -12.73,-0.22 -22.59,1.25l-1.39 -9.33z"/>
   <path id="_12" class="fil4" d="M4291.45 552.77l-134.35 8.57 -20.03 56.39c-4.88,13.97 -6.87,24.06 -6.47,30.33 0.37,5.75 2.73,9.81 8.22,13.65 5.49,3.85 16.12,5.79 32.92,5.77l0.59 9.41 -108.74 6.93 -0.6 -9.41c13.95,-3.51 23.17,-7.25 27.6,-11.72 7.83,-8.91 16.72,-25.75 25.59,-51.51l103.64 -292.69 8.89 -0.57 138.6 280.4c11.41,22.38 21.25,36.97 29.53,43.26 8.27,6.3 19.49,9.26 33.67,9.41l0.6 9.41 -136.45 8.7 -0.6 -9.41c13.55,-1.38 22.79,-4.6 27.27,-8.57 4.44,-4.47 6.77,-9.35 6.39,-15.1 -0.46,-7.31 -4.37,-19.15 -12.17,-34.4l-24.12 -48.85zm-8.51 -18.36l-67.45 -135.85 -51.74 143.45 119.2 -7.6zm-8.08 -324.4l-69.68 92.61 -8.37 0.54 21.06 -89.52 56.99 -3.63z"/>
   <path id="_13" class="fil4" d="M4698.73 332l0.32 -9.43 122.51 4.27 -0.32 9.43 -12.57 -0.44c-14.14,-0.49 -24.81,4.9 -32.54,16.17 -3.33,5.11 -5.84,17.09 -6.52,36.46l-4.9 140.82c-1.21,34.56 -5.28,61.15 -13.28,80.27 -7.49,19.13 -21.67,34.89 -42.04,47.8 -20.9,13.43 -48.36,19.29 -83.45,18.06 -37.69,-1.31 -66.25,-9.12 -85.16,-22.89 -19.43,-13.78 -32.43,-32.06 -40.04,-54.34 -4.71,-15.35 -6.35,-43.71 -4.88,-85.61l4.72 -135.59c0.75,-21.46 -1.91,-35.18 -7.43,-42.19 -6.05,-7.03 -15.37,-10.5 -28.46,-10.95l-13.09 -0.45 0.32 -9.43 150.26 5.24 -0.32 9.42 -13.62 -0.47c-14.13,-0.49 -24.77,3.85 -30.84,12.56 -4.93,6.12 -7.46,18.61 -8.13,37.98l-5.27 151.3c-0.46,13.09 0.56,28.85 2.05,46.2 2.01,17.37 6.26,31.15 12.19,41.31 5.96,9.64 15.09,18.35 26.91,25.05 12.33,6.73 26.9,10.38 44.7,10.99 22.51,0.79 43.1,-3.73 61.25,-13.06 18.67,-9.31 31.15,-21.46 37.97,-36.41 7.34,-15.48 11.4,-41.54 12.68,-78.19l4.89 -140.31c0.74,-21.46 -0.87,-35.15 -5.38,-41.08 -6.55,-7.56 -16.37,-11.57 -29.46,-12.03l-13.09 -0.45z"/>
   <path id="_14" class="fil4" d="M5160.04 370.15l-6.61 81 -9.87 -1.25c0.21,-14.23 -1.06,-24.96 -3.44,-31.06 -3.94,-10.53 -10.29,-18.74 -18.53,-24.54 -7.72,-5.74 -18.83,-9.79 -33.37,-11.64l-48.33 -6.14 -33.44 262.96c-2.71,21.3 -2.28,34.55 1.74,40.35 5.82,8.13 15.24,13.02 28.22,14.67l11.95 1.52 -1.19 9.36 -145.51 -18.51 1.19 -9.36 11.95 1.52c14.54,1.85 25.53,-1.5 32.84,-9.02 4.36,-5.26 7.51,-17.54 9.95,-36.76l33.44 -262.96 -41.05 -5.22c-16.11,-2.05 -27.75,-1.94 -34.76,-0.72 -9.23,2 -17.83,7.24 -25.25,15.8 -7.35,8.05 -12.58,20.06 -15.6,35.52l-9.87 -1.26 14.4 -80.02 281.14 35.76z"/>
   <path id="_15" class="fil4" d="M5293.18 740.75l-1.84 9.25 -145.94 -28.87 1.83 -9.25 11.82 2.34c14.39,2.85 25.49,0.77 33.27,-6.24 5.13,-4.32 9.73,-16.76 13.79,-37.32l43.51 -219.95c3.36,-16.96 4.67,-28.98 3.11,-34.63 -0.72,-4.42 -3.61,-8.72 -8.14,-12.83 -6.38,-5.53 -13.68,-9.11 -21.9,-10.74l-11.82 -2.34 1.84 -9.25 145.94 28.87 -1.83 9.25 -12.33 -2.44c-13.88,-2.75 -24.97,-0.67 -32.76,6.34 -5.64,4.21 -10.24,16.66 -14.3,37.22l-43.51 219.95c-3.36,16.96 -4.57,28.46 -3.11,34.63 0.72,4.42 3.61,8.72 8.14,12.83 6.38,5.53 13.68,9.11 21.9,10.74l12.33 2.44z"/>
   <path id="_16" class="fil4" d="M5702.13 489.79l-23.42 115.79 -7.58 -2.07c-0.74,-37.12 -8.78,-65.38 -23.35,-85.64 -15.21,-19.89 -35.89,-33.67 -62.16,-40.84 -22.24,-6.06 -43.97,-6.01 -64.7,0.29 -21.36,6.65 -40.33,20.48 -57.19,42.5 -16.86,22.01 -30.83,51.32 -40.75,87.71 -8.27,30.32 -10.38,57.99 -6.84,82.83 3.55,24.86 13.51,46.04 30.06,63.04 16.54,16.99 37.12,29.13 61.88,35.88 21.74,5.93 42.18,6.62 61.35,2.07 19.3,-5.06 42.45,-18.29 69.74,-40.72l6.21 7.12c-24.81,25.27 -50.44,41.63 -76.41,49.21 -25.95,7.58 -54.67,7.36 -85.5,-1.04 -55.09,-15.03 -92.4,-47.46 -111.57,-96.67 -14.48,-36.52 -16.18,-76.08 -4.87,-117.52 9.1,-33.36 25.08,-62.12 47.82,-85.77 22.24,-23.81 48.88,-39.89 79.44,-48.4 30.41,-7.99 61.3,-7.72 92.12,0.69 24.26,6.62 46.5,18.65 66.94,37.26 5.61,5.33 10.11,8.72 13.14,9.56 4.56,1.23 8.5,0.69 13,-1.89 5.14,-2.94 9.97,-8.69 14.06,-15.71l8.58 2.34z"/>
   <path id="_17" class="fil4" d="M5907.49 813.02l-126.43 -46.28 -41.04 43.55c-10.1,10.81 -15.98,19.26 -18.13,25.16 -1.99,5.41 -1.46,10.07 2.02,15.81 3.48,5.74 12.42,11.8 27.8,18.54l-3.24 8.85 -102.32 -37.46 3.25 -8.85c14.18,2.4 24.11,2.69 29.98,0.38 10.76,-4.99 25.68,-16.82 44.17,-36.84l212.77 -226.14 8.36 3.06 13.91 312.48c1.43,25.07 4.57,42.39 9.61,51.49 5.03,9.1 14.11,16.32 27.03,22.16l-3.24 8.85 -128.39 -47 3.24 -8.85c12.97,4.19 22.72,4.97 28.41,3.15 5.87,-2.31 9.96,-5.84 11.94,-11.25 2.52,-6.89 3.71,-19.29 2.72,-36.38l-2.39 -54.43zm-0.4 -20.23l-7.02 -151.51 -105.14 110.45 112.16 41.06z"/>
   <path id="_18" class="fil4" d="M6098.78 1015.98l4.32 -8.38 11.64 6.01c13.02,6.74 24.5,7.36 34.41,1.87 5.9,-3.43 13.08,-13.88 21.98,-31.1l102.95 -199.17c9.86,-19.08 14.26,-32.14 12.71,-39.43 -2.69,-9.64 -9.85,-17.47 -21.48,-23.48l-11.64 -6.01 4.33 -8.38 125.64 64.95c46.07,23.81 78.33,46.98 96.53,69.94 18.91,22.75 29.55,50.07 31.23,82.2 1.92,31.65 -5.31,63.89 -21.9,96 -22.14,42.81 -53.69,71.9 -94.42,86.82 -45.91,16.95 -98.55,10.39 -158.57,-20.64l-137.74 -71.2zm99.49 23.13c16.92,14.05 32,24.79 45.03,31.53 35.36,18.28 70.71,20.63 106.73,7.99 36.01,-12.63 64.97,-40.12 86.86,-82.48 21.88,-42.34 27.57,-81.86 17.06,-118.55 -10.52,-36.7 -34.05,-64.2 -70.34,-82.96 -13.49,-6.97 -30.53,-12.82 -49.91,-17.53l-135.43 262z"/>
   <path id="_19" class="fil4" d="M6692.63 968.53l-72.93 116.26 64.34 40.36c16.86,10.58 29.62,14.88 38.46,13.62 11.72,-1.93 23.68,-11.12 34.41,-27.26l8.44 5.29 -64.02 102.06 -8.44 -5.29c7.14,-15.3 10.76,-26.03 11.5,-31.13 0.39,-6.56 -1.54,-13.34 -5.36,-20.06 -4.11,-6.28 -12.31,-13.9 -24.74,-21.7l-64.34 -40.36 -60.96 97.19c-8.07,12.87 -12.64,21.13 -12.97,24.63 -0.79,3.21 -0.24,7.28 2.03,10.55 1.54,3.44 6.32,7.68 14.75,12.97l49.71 31.17c16.41,10.29 29.67,16.76 38.61,19.27 8.49,2.24 18.82,2.54 29.93,-0.38 14.89,-3.03 32.12,-10.78 52.85,-23.14l8.88 5.57 -71.51 57.8 -226.33 -141.96 5.01 -7.99 10.21 6.4c7.1,4.45 14.42,6.57 22.59,7.37 6.55,0.39 11.6,-0.76 16.45,-4.53 4.11,-3.6 10.84,-12.36 20.03,-27.01l119.7 -190.83c11.69,-18.65 17.15,-31.3 16.39,-37.96 -1.72,-9.1 -8.91,-17.34 -20.89,-24.85l-10.22 -6.41 5.01 -7.98 226.33 141.96 -37.25 66.29 -8.44 -5.29c6.63,-17.48 10.21,-30.08 9.84,-38.36 0.06,-7.98 -2.48,-15.77 -8.07,-23.6 -4.38,-5.84 -13.59,-12.85 -28.22,-22.03l-80.77 -50.66z"/>
   <path id="_20" class="fil4" d="M7101.25 1452.53c15.37,19.29 24.21,36.63 26.27,53.17 3.07,22.78 -3.09,42.77 -17.32,60.22 -10.91,13.4 -25.24,22.67 -43.69,27.91 -18.46,5.23 -37.11,4.89 -56.77,-1.66 -19.25,-6.23 -43.9,-21.59 -74.36,-46.41l-126.69 -103.25 5.96 -7.31 10.15 8.27c10.96,8.94 22.06,11.91 32.56,8.97 7.22,-2.23 16.39,-10.97 28.63,-26l141.65 -173.8c13.57,-16.65 20.56,-28.53 20.14,-36.31 -0.65,-9.99 -5.64,-18.78 -15.8,-27.06l-10.15 -8.27 5.96 -7.31 116.14 94.66c21.51,17.54 37.64,33.39 47.99,47.23 16.26,20.69 24.33,41.47 24.97,62.25 0.63,20.79 -5.35,38.9 -18.26,54.73 -10.92,13.4 -25.32,21.95 -42.04,25.88 -16.72,3.94 -35.2,1.72 -55.33,-5.9zm-95.35 -95.29c4.21,4.79 9.23,10.23 15,15.61 6.16,5.69 12.73,11.72 20.05,17.68 19.5,15.89 36.09,25.37 49.15,29.24 12.64,3.55 25.65,3.35 37.48,-1.21 12.23,-4.23 22.28,-11.58 30.55,-21.73 12.91,-15.83 17.74,-34.21 13.68,-55.76 -3.31,-21.63 -18.11,-42.46 -42.46,-62.32 -13.4,-10.92 -26.17,-19.3 -39.05,-25.07l-84.39 103.55zm-104.59 128.32c12.46,16.23 26.16,30.1 41.18,42.34 23.96,19.53 46.53,29.15 67.73,28.85 21.52,-0.7 38.53,-9.13 51.44,-24.98 8.6,-10.55 13.7,-22.62 15.96,-37 2.26,-14.37 -0.79,-29.7 -9.08,-45.24 -8.36,-16.27 -21.88,-32.02 -40.97,-47.57 -8.12,-6.62 -15.36,-11.83 -21.05,-16.47 -6.42,-4.56 -11.21,-7.8 -15.54,-9.97l-89.69 110.05z"/>
   <path id="_21" class="fil4" d="M7325.83 1905.61l-66.85 -64.24 27.93 -198.41c-6.78,-5.78 -11.69,-10.51 -15.84,-14.5 -1.51,-1.46 -3.03,-2.9 -4.92,-4.72 -1.88,-1.81 -3.77,-3.62 -5.3,-5.83l-70.06 72.9c-14.88,15.48 -22.81,26.76 -23.04,33.8 -0.54,10.39 3.72,19.56 13.16,28.64l9.82 9.44 -6.53 6.79 -107.26 -103.09 6.53 -6.79 9.44 9.07c10.58,10.16 21.4,14.02 32.46,11.58 6.64,-1.61 16.12,-9.21 29.91,-23.56l155.37 -161.66c15.25,-15.86 22.81,-26.76 23.41,-34.18 0.17,-10 -4.46,-19.55 -13.91,-28.62l-9.44 -9.07 6.53 -6.8 91.03 87.48c26.81,25.77 44.26,46.17 53.47,62.3 8.46,16.13 12.88,33.45 11.42,52.38 -1.11,18.54 -8.57,35.36 -22.37,49.72 -14.88,15.48 -32.86,23.62 -53.58,25.51 -21.09,1.52 -44.2,-5.43 -69.68,-20.48l-17.62 121.13c-3.52,27.86 -4.22,48.25 -0.98,62.27 3.23,13.27 11.29,27.56 23.43,42.14l-6.53 6.79zm-54.1 -299.02c2.27,2.18 4.16,3.99 6.05,5.81 1.5,1.45 3.02,2.9 4.15,3.99 23.8,22.87 47.01,35.01 68.89,36.43 21.89,1.42 40.64,-6 55.88,-21.86 15.25,-15.86 22.32,-33.05 21.94,-52.3 -0.38,-19.27 -8.5,-36.52 -24.74,-52.13 -7.17,-6.9 -17.71,-14.83 -31.97,-24.19l-100.2 104.24z"/>
   <path id="_22" class="fil4" d="M7564.77 2015.06l-85 -104.4 -57.54 16.45c-14.2,4.13 -23.57,8.38 -28.45,12.35 -4.46,3.64 -6.39,7.91 -6.34,14.62 0.06,6.71 4.65,16.49 14.41,30.15l-7.31 5.95 -68.79 -84.49 7.31 -5.96c10.96,9.32 19.35,14.65 25.58,15.66 11.8,1.21 30.66,-1.33 56.79,-9.09l298.47 -85.59 5.62 6.91 -147.79 275.66c-11.58,22.28 -17.75,38.77 -18.06,49.17 -0.32,10.39 3.78,21.23 11.9,32.86l-7.31 5.96 -86.32 -106.03 7.31 -5.95c8.99,10.23 16.98,15.88 22.8,17.23 6.23,1.01 11.54,0.07 16.01,-3.56 5.69,-4.63 13.05,-14.68 20.94,-29.88l25.77 -48.01zm10 -17.59l71.42 -133.8 -146.82 41.18 75.41 92.62z"/>
   <path id="_23" class="fil4" d="M7991.42 2191.9l-98.88 67.94 -5.34 -7.77c17.5,-15.21 29.36,-30.34 36.14,-44.53 6.78,-14.19 9.31,-29.92 7.48,-46.46 -1.4,-16.84 -6.98,-31.43 -15.88,-44.38 -10.09,-14.68 -22.71,-23.81 -38.3,-27.07 -15.17,-3.56 -28.79,-1.2 -40.02,6.52 -9.07,6.23 -14.76,14.59 -17.94,25.67 -4.44,15.76 -4.44,46.27 0.84,90.95 4.15,36.56 5.38,62.41 4.44,77.68 -0.52,14.97 -4.54,28.54 -11.34,40.84 -6.8,12.31 -16.24,22.61 -27.47,30.32 -21.59,14.83 -45.79,19.38 -73.34,13.52 -27.12,-6.15 -49.72,-22.39 -67.82,-48.73 -5.64,-8.2 -10.54,-16.28 -14.29,-24.5 -2.11,-4.92 -5.74,-15.76 -10.91,-32.54 -5.18,-16.8 -8.95,-26.91 -11.32,-30.36 -2.38,-3.46 -5.32,-5.89 -8.96,-6.56 -3.36,-0.24 -8.85,1 -15.93,4.58l-5.34 -7.77 98.01 -67.34 5.34 7.77c-18.35,17.69 -29.9,33.26 -36.1,46.42 -5.78,12.86 -7.89,28.3 -5.9,46 2.13,16.97 8.46,33.6 18.85,48.71 11.87,17.27 26.41,28.25 42.29,31.95 16.62,3.83 30.98,1.6 43.5,-7.01 7.34,-5.04 12.76,-11.95 17.43,-20.88 4.23,-8.63 7,-19.43 7.41,-31.78 0.75,-8.14 -0.56,-29.49 -4.09,-63.29 -2.78,-33.68 -4.16,-58.79 -3.08,-74.8 1.38,-15.56 4.81,-30.01 11.18,-42.01 6.37,-12 15.38,-22.01 27.04,-30.02 20.3,-13.94 43.33,-18.33 69.13,-13.17 25.65,5.88 46.65,20.7 63.26,44.88 10.68,15.54 18.2,33.88 22,56.07 1.88,10.14 4.02,16.94 6.39,20.4 2.37,3.45 5.74,5.58 9.38,6.26 3.94,1.1 9.44,-0.14 16.81,-3.29l5.35 7.77z"/>
   <path id="_24" class="fil4" d="M7821.15 2567.95l-7.98 5.02 -79.19 -125.95 7.98 -5.01 6.41 10.19c7.81,12.43 16.94,19.06 27.38,19.92 6.66,0.77 18.86,-4.44 36.6,-15.59l189.8 -119.35c14.64,-9.2 24.28,-16.5 27.31,-21.5 2.72,-3.56 3.87,-8.61 3.74,-14.73 -0.36,-8.44 -2.77,-16.2 -7.23,-23.3l-6.41 -10.19 7.98 -5.02 79.19 125.94 -7.98 5.02 -6.69 -10.65c-7.53,-11.97 -16.66,-18.61 -27.1,-19.47 -6.94,-1.21 -19.14,4 -36.88,15.16l-189.8 119.35c-14.64,9.2 -23.83,16.21 -27.31,21.5 -2.72,3.55 -3.87,8.61 -3.74,14.73 0.35,8.44 2.76,16.2 7.23,23.3l6.68 10.65zm371.74 -254.17l-114.66 -17.01 -4.74 -7.55 89 -23.79 30.4 48.34z"/>
   <path id="_25" class="fil4" d="M8045.35 2804.71l2.48 8.16 -97.19 17.5 -124.05 -238.39 8.36 -4.35 6.05 11.61c6.77,13.01 15.79,20.13 27.05,21.36 6.8,0.59 18.68,-3.81 36.33,-13l198.44 -103.25c19.05,-9.92 30.17,-18.07 33.11,-24.91 3.36,-9.42 2.02,-19.94 -4.03,-31.56l-6.04 -11.61 8.36 -4.35 72.54 139.41 -8.36 4.35c-8.46,-16.26 -15.9,-27.17 -22.54,-31.97 -6.64,-4.81 -12.77,-7.52 -19.09,-7.19 -5.86,0.09 -18.2,4.75 -36.33,14.18l-193.32 100.6c-12.54,6.52 -20.64,12.51 -24.08,17.25 -2.29,3.55 -3.16,7.55 -2.62,11.99 0.55,4.45 5.66,16.55 16.06,36.53l11.61 22.3c12.33,23.7 22.89,39.46 30.98,47.06 8.8,7.82 19.43,13.51 32.13,16.35 12.94,3.3 30.99,3.95 54.15,1.94z"/>
   <path id="_26" class="fil4" d="M8044.66 3010.12l-8.54 4.01 -63.22 -134.68 8.53 -4.01 5.12 10.91c6.24,13.29 14.49,20.98 24.74,23.12 6.52,1.57 19.26,-2.11 38.23,-11.01l202.96 -95.29c15.66,-7.35 26.12,-13.41 29.74,-18.01 3.14,-3.2 4.89,-8.08 5.51,-14.16 0.68,-8.42 -0.77,-16.43 -4.32,-24.01l-5.12 -10.91 8.54 -4.01 63.22 134.67 -8.54 4.01 -5.34 -11.37c-6.01,-12.81 -14.26,-20.51 -24.52,-22.65 -6.75,-2.04 -19.49,1.63 -38.46,10.54l-202.96 95.28c-15.65,7.35 -25.63,13.18 -29.74,18.01 -3.13,3.2 -4.89,8.08 -5.5,14.16 -0.68,8.42 0.76,16.42 4.32,24.01l5.35 11.38z"/>
   <path id="_27" class="fil4" d="M8234.67 3209.68l-47.01 -126.16 -59.77 -2.89c-14.78,-0.64 -25.02,0.38 -30.91,2.57 -5.4,2.01 -8.6,5.45 -10.7,11.81 -2.1,6.38 -0.89,17.1 3.98,33.18l-8.84 3.29 -38.04 -102.1 8.84 -3.29c7.39,12.33 13.63,20.07 19.2,23.04 10.78,4.92 29.47,8.58 56.7,9.62l310.14 14.69 3.12 8.35 -228.42 213.68c-18.13,17.37 -29.24,31.02 -32.88,40.76 -3.65,9.74 -3.24,21.33 0.71,34.95l-8.84 3.29 -47.73 -128.12 8.84 -3.29c5.24,12.58 11,20.49 16.07,23.63 5.57,2.96 10.91,3.78 16.31,1.76 6.87,-2.56 17.07,-9.72 29.41,-21.59l39.82 -37.2zm15.11 -13.45l110.58 -103.82 -152.28 -8.11 41.7 111.93z"/>
   <path class="fil1" d="M7308.77 1235.32c-780.68,-688.66 -1786.52,-1069.5 -2827.83,-1069.5 -1225.46,0 -2393.02,526.92 -3203.75,1445.63 -688.64,780.46 -1069.48,1786.31 -1069.48,2827.62 0,1225.48 526.92,2393.04 1445.63,3203.77 780.46,688.64 1786.31,1069.48 2827.6,1069.48 1225.48,0 2393.04,-526.92 3203.77,-1445.63 688.64,-780.46 1069.48,-1786.31 1069.48,-2827.62 0,-1225.48 -526.92,-2393.04 -1445.63,-3203.77l0.21 0.02z"/>
   <path id="text2" class="fil4" d="M1686.82 7677.62l5.83 -7.42 10.29 8.09c11.53,9.06 22.68,11.83 33.45,8.3 6.44,-2.26 15.45,-11.17 27.43,-26.41l138.54 -176.29c13.27,-16.88 20.04,-28.89 19.9,-36.33 -0.83,-9.98 -6.39,-19.01 -16.68,-27.1l-10.3 -8.09 5.83 -7.41 111.2 87.39c40.77,32.04 68.11,60.86 81.67,86.83 14.29,25.89 19.62,54.72 15.23,86.59 -4.06,31.45 -17.22,61.76 -39.55,90.18 -29.78,37.89 -66.25,60.54 -109.05,67.54 -48.28,8.03 -98.74,-8.31 -151.87,-50.06l-121.91 -95.81zm93.38 41.4c13.98,16.98 26.78,30.37 38.31,39.43 31.3,24.59 65.58,33.54 103.32,27.9 37.75,-5.64 71.35,-27.21 100.81,-64.7 29.45,-37.48 42.46,-75.22 39.02,-113.24 -3.43,-38.01 -21.38,-69.45 -53.5,-94.69 -11.94,-9.38 -27.57,-18.32 -45.73,-26.6l-182.23 231.89z"/>
   <path id="_1_0" class="fil4" d="M2117.59 7987.69l-5.31 7.8 -122.95 -83.76 5.31 -7.79 9.96 6.78c12.13,8.26 23.15,10.7 33.06,7.3 6.41,-1.96 15.51,-11.61 27.31,-28.93l126.22 -185.3c9.74,-14.29 15.65,-24.84 16.44,-30.64 1.06,-4.35 0.09,-9.44 -2.47,-15 -3.7,-7.58 -9.01,-13.75 -15.94,-18.46l-9.96 -6.78 5.31 -7.8 122.96 83.76 -5.31 7.8 -10.39 -7.08c-11.69,-7.96 -22.71,-10.39 -32.63,-7.01 -6.84,1.67 -15.94,11.32 -27.74,28.64l-126.22 185.3c-9.74,14.28 -15.36,24.39 -16.44,30.64 -1.07,4.34 -0.1,9.44 2.46,14.99 3.7,7.59 9.01,13.75 15.94,18.47l10.39 7.07z"/>
   <path id="_2_1" class="fil4" d="M2423.1 8190.02l-78.9 -48.69 -14.59 -199.83c-7.85,-4.22 -13.64,-7.8 -18.55,-10.83 -1.78,-1.1 -3.56,-2.2 -5.79,-3.57 -2.23,-1.37 -4.45,-2.75 -6.41,-4.58l-53.1 86.04c-11.28,18.27 -16.65,30.97 -15.39,37.9 1.67,10.26 7.77,18.34 18.91,25.22l11.59 7.15 -4.95 8.03 -126.61 -78.13 4.96 -8.03 11.14 6.88c12.48,7.7 23.87,9.2 34.17,4.47 6.14,-2.98 13.82,-12.41 24.27,-29.35l117.74 -190.81c11.56,-18.73 16.65,-30.97 15.67,-38.36 -1.95,-9.81 -8.49,-18.15 -19.63,-25.03l-11.15 -6.88 4.95 -8.03 107.45 66.29c31.65,19.54 53.01,35.8 65.41,49.61 11.68,13.98 19.66,29.99 22.22,48.79 2.82,18.37 -0.91,36.38 -11.36,53.32 -11.29,18.28 -27.15,30.03 -47,36.25 -20.29,5.95 -44.34,4.03 -72.43,-5.3l8.35 122.11c2.44,27.97 6.05,48.06 12.18,61.07 5.96,12.3 16.85,24.56 31.81,36.25l-4.96 8.02zm-115.99 -280.87c2.67,1.65 4.9,3.03 7.14,4.41 1.78,1.1 3.56,2.19 4.9,3.02 28.08,17.34 53.34,24.3 75.03,21.07 21.69,-3.24 38.46,-14.44 50.01,-33.16 11.55,-18.73 14.84,-37.02 10.4,-55.75 -4.44,-18.76 -16.02,-33.9 -35.19,-45.74 -8.46,-5.22 -20.44,-10.76 -36.35,-16.89l-75.93 123.05z"/>
   <path id="_3_2" class="fil4" d="M2664.62 7941.42l-61.27 122.81 67.96 33.91c17.81,8.88 30.93,11.93 39.6,9.81 11.47,-3.06 22.48,-13.38 31.59,-30.49l8.91 4.45 -53.78 107.82 -8.91 -4.45c5.61,-15.93 8.18,-26.95 8.41,-32.1 -0.24,-6.56 -2.83,-13.11 -7.28,-19.43 -4.7,-5.85 -13.61,-12.64 -26.73,-19.18l-67.96 -33.91 -51.22 102.66c-6.78,13.6 -10.52,22.27 -10.52,25.78 -0.47,3.27 0.47,7.26 3.05,10.3 1.87,3.28 7.03,7.03 15.94,11.46l52.5 26.2c17.34,8.65 31.17,13.79 40.31,15.42 8.67,1.4 18.97,0.7 29.75,-3.29 14.52,-4.46 30.91,-13.86 50.34,-28.16l9.37 4.68 -65.54 64.48 -239.07 -119.28 4.21 -8.44 10.78 5.38c7.5,3.74 15,5.13 23.19,5.13 6.56,-0.24 11.48,-1.89 15.94,-6.11 3.74,-3.99 9.59,-13.36 17.31,-28.83l100.56 -201.56c9.83,-19.69 14.02,-32.82 12.62,-39.38 -2.59,-8.89 -10.55,-16.38 -23.21,-22.69l-10.79 -5.38 4.21 -8.45 239.07 119.28 -30.63 69.61 -8.91 -4.45c4.9,-18.04 7.23,-30.93 6.06,-39.13 -0.71,-7.96 -4,-15.46 -10.33,-22.71 -4.93,-5.38 -14.78,-11.47 -30.24,-19.18l-85.31 -42.57z"/>
   <path id="_4_3" class="fil4" d="M3120.27 8125.38l-27.89 76.35 -9.18 -3.83c3.99,-13.66 5.61,-24.33 4.94,-30.86 -1.01,-11.2 -4.95,-20.81 -11.35,-28.59 -5.92,-7.58 -15.55,-14.43 -29.09,-20.08l-44.96 -18.77 -102.09 244.63c-8.27,19.82 -11.38,32.72 -9.05,39.37 3.45,9.38 11.23,16.6 23.31,21.64l11.12 4.64 -3.63 8.71 -135.36 -56.49 3.63 -8.71 11.12 4.64c13.53,5.65 25.02,5.34 34.05,0.03 5.61,-3.91 11.9,-14.91 19.36,-32.8l102.1 -244.62 -38.19 -15.94c-14.99,-6.26 -26.24,-9.23 -33.32,-9.93 -9.44,-0.53 -19.11,2.25 -28.54,8.53 -9.23,5.8 -17.46,15.99 -24.47,30.09l-9.2 -3.83 35.15 -73.32 261.54 109.15z"/>
   <path id="_5_4" class="fil4" d="M3282.53 8169.52c42.96,13.55 74.88,41.21 95.96,84.1 21.22,42.4 24.45,87.92 9,136.88 -15.92,50.45 -44.99,86.88 -87.52,110.27 -41.88,23.04 -85.54,27.4 -130.51,13.21 -45.46,-14.34 -78.89,-42.47 -99.61,-84.71 -20.73,-42.25 -22.98,-89.1 -6.91,-140.06 16.71,-52.95 48.09,-89.75 94.61,-111.86 39.96,-18.71 81.51,-21.54 124.98,-7.82zm-10.52 15.91c-29.47,-9.3 -56.42,-5.71 -81.34,10.59 -31.16,20.39 -54.75,56.89 -71.45,109.84 -17.03,53.96 -18.62,99.05 -4.78,135.28 11.05,27.65 31.07,46.05 60.05,55.19 30.97,9.77 60.23,5.82 88.28,-11.7 28.2,-18.01 50.17,-52.83 66.72,-105.28 17.81,-56.46 19.72,-102.55 6.4,-136.96 -11.05,-27.66 -31.91,-46.87 -63.88,-56.96z"/>
   <path id="_6_5" class="fil4" d="M3699.29 8642.02l-90.57 -19.82 -79.9 -183.74c-8.81,-1.38 -15.46,-2.84 -21.1,-4.07 -2.05,-0.45 -4.1,-0.9 -6.65,-1.46 -2.55,-0.56 -5.11,-1.12 -7.56,-2.2l-21.62 98.77c-4.59,20.98 -5.46,34.74 -1.97,40.85 4.97,9.14 13.4,14.74 26.19,17.54l13.31 2.91 -2.01 9.21 -145.33 -31.82 2.01 -9.21 12.79 2.8c14.33,3.13 25.57,0.77 33.73,-7.1 4.82,-4.84 8.93,-16.28 13.19,-35.72l47.95 -219.03c4.71,-21.49 5.46,-34.73 2.08,-41.37 -5.09,-8.61 -14.01,-14.32 -26.81,-17.12l-12.79 -2.8 2.01 -9.21 123.33 26.99c36.33,7.95 61.88,16.22 78.15,25.16 15.65,9.32 28.47,21.78 37.11,38.68 8.74,16.4 11.18,34.63 6.92,54.08 -4.59,20.97 -15.68,37.31 -32.34,49.76 -17.18,12.33 -40.51,18.48 -70.11,18.97l48.31 112.47c11.56,25.59 21.62,43.34 31.7,53.6 9.7,9.62 24.04,17.59 42.01,23.68l-2.02 9.21zm-202.43 -226.64c3.07,0.68 5.62,1.23 8.2,1.8 2.04,0.45 4.08,0.89 5.62,1.23 32.23,7.05 58.38,5.27 77.77,-4.96 19.4,-10.24 31.5,-26.36 36.21,-47.84 4.71,-21.49 1.75,-39.84 -8.64,-56.06 -10.39,-16.22 -26.34,-26.68 -48.34,-31.5 -9.73,-2.13 -22.85,-3.39 -39.91,-3.91l-30.91 141.24z"/>
   <path id="_7_6" class="fil4" d="M3856.13 8657.7l-1.61 9.29 -146.61 -25.23 1.6 -9.29 11.87 2.04c14.46,2.49 25.49,0.13 33.11,-7.06 5.02,-4.45 9.3,-16.99 12.85,-37.65l38.02 -220.96c2.93,-17.04 3.94,-29.09 2.25,-34.69 -0.84,-4.4 -3.82,-8.63 -8.45,-12.62 -6.52,-5.37 -13.91,-8.77 -22.17,-10.19l-11.87 -2.04 1.61 -9.29 146.61 25.23 -1.6 9.29 -12.38 -2.13c-13.94,-2.4 -24.98,-0.05 -32.6,7.15 -5.53,4.36 -9.81,16.91 -13.36,37.57l-38.02 220.96c-2.93,17.04 -3.86,28.57 -2.26,34.69 0.84,4.4 3.83,8.63 8.46,12.62 6.52,5.36 13.89,8.77 22.16,10.19l12.39 2.13z"/>
   <path id="_8_7" class="fil4" d="M4117.26 8580.25l-133.92 -13.76 -29.08 52.31c-7.13,12.97 -10.75,22.59 -11.39,28.85 -0.59,5.74 1.07,10.12 5.85,14.82 4.79,4.71 14.94,8.38 31.51,11.14l-0.97 9.38 -108.38 -11.15 0.97 -9.37c14.33,-1.16 24.04,-3.32 29.15,-7.01 9.2,-7.49 20.75,-22.62 33.75,-46.57l150.61 -271.51 8.86 0.91 90.34 299.45c7.55,23.95 14.85,39.97 21.97,47.55 7.12,7.58 17.69,12.35 31.65,14.84l-0.96 9.38 -136.01 -13.98 0.97 -9.38c13.6,0.87 23.24,-0.77 28.31,-3.94 5.12,-3.68 8.21,-8.11 8.81,-13.84 0.74,-7.29 -1.15,-19.61 -6.32,-35.94l-15.7 -52.18zm-5.36 -19.51l-44.07 -145.13 -74.75 132.91 118.81 12.21z"/>
   <path id="_9_8" class="fil4" d="M4354.28 8714.03l-0.13 -9.43 13.1 -0.18c14.66,-0.19 25.08,-5.05 31.23,-14.56 3.59,-5.81 5,-18.4 4.74,-37.78l-3.02 -224.19c-0.29,-21.48 -2.56,-35.07 -7.36,-40.77 -6.91,-7.24 -16.9,-10.78 -30,-10.6l-13.1 0.18 -0.13 -9.43 141.42 -1.89c51.85,-0.7 91.22,4.54 118.09,16.22 27.4,11.16 49.66,30.25 66.28,57.79 16.6,27.02 25.41,58.86 25.89,95 0.65,48.2 -13.48,88.73 -42.39,121.07 -32.51,36.58 -82.03,55.58 -149.6,56.49l-155.04 2.08zm98.66 -26.47c21.54,4.43 39.91,6.79 54.58,6.6 39.8,-0.53 72.09,-15.11 97.9,-43.23 25.82,-28.11 38.4,-66 37.76,-113.67 -0.64,-47.66 -14.24,-85.2 -40.8,-112.61 -26.56,-27.42 -60.28,-40.59 -101.13,-40.04 -15.19,0.2 -32.97,3.07 -52.29,8.05l3.96 294.9z"/>
   <path id="_10_9" class="fil4" d="M4802.08 8371.21l12.84 136.64 75.62 -7.11c19.81,-1.86 32.56,-6.21 38.8,-12.58 8.13,-8.66 12.03,-23.23 10.73,-42.57l9.91 -0.94 11.28 119.96 -9.91 0.94c-3.65,-16.49 -7.29,-27.2 -9.82,-31.7 -3.67,-5.45 -9.33,-9.65 -16.45,-12.66 -7.07,-2.49 -18.22,-3.55 -32.83,-2.17l-75.63 7.11 10.74 114.21c1.42,15.13 2.82,24.46 4.69,27.45 1.33,3.03 4.24,5.91 8.04,7.13 3.32,1.8 9.68,2.26 19.58,1.33l58.42 -5.49c19.3,-1.81 33.75,-4.75 42.37,-8.2 8.1,-3.39 16.48,-9.44 23.53,-18.52 9.97,-11.46 18.92,-28.09 27.86,-50.51l10.44 -0.98 -21.6 89.38 -265.99 25 -0.88 -9.38 12 -1.13c8.34,-0.78 15.44,-3.55 22.4,-7.9 5.45,-3.67 8.75,-7.66 10.3,-13.6 1.07,-5.36 1.09,-16.41 -0.53,-33.62l-21.09 -224.27c-2.06,-21.91 -5.42,-35.27 -10.08,-40.09 -6.9,-6.19 -17.62,-8.34 -31.69,-7.02l-12.01 1.13 -0.88 -9.39 266 -25 10.76 75.28 -9.91 0.94c-5.36,-17.91 -10.19,-30.09 -15.53,-36.43 -4.81,-6.39 -11.55,-11.02 -20.76,-13.83 -7.03,-1.97 -18.61,-1.93 -35.81,-0.32l-94.93 8.92z"/>
   <path id="_11_10" class="fil4" d="M5096.51 8320.17l92.41 -18.74 259.05 212.61 -39.66 -195.61c-4.26,-21.05 -8.92,-33.47 -14.68,-38.17 -7.53,-5.43 -18.01,-7.04 -31.86,-4.23l-11.3 2.28 -1.87 -9.23 118.08 -23.94 1.87 9.24 -11.81 2.39c-14.37,2.91 -23.81,9.1 -28.2,19.08 -2.45,6.38 -2,19.12 1.85,38.11l58.08 286.48 -8.73 1.77 -279.84 -228.17 42.36 208.96c4.27,21.05 9.44,33.37 14.59,37.67 8.13,5.83 18.61,7.44 31.44,4.84l12.33 -2.5 1.87 9.24 -118.6 24.04 -1.87 -9.24 11.81 -2.39c14.9,-3.02 24.22,-9.72 28.21,-19.07 2.96,-6.49 2,-19.12 -1.85,-38.12l-47.88 -236.16c-12.14,-9.84 -21.3,-15.46 -27.28,-18.52 -5.35,-2.65 -13.67,-4.18 -24.16,-5.79 -5.44,-0.5 -12.73,0.44 -22.49,2.41l-1.87 -9.23z"/>
   <path id="_12_11" class="fil4" d="M5737.26 8401.12l-128.39 40.5 -5.94 59.55c-1.39,14.73 -0.9,25 0.99,31 1.74,5.49 4.99,8.86 11.25,11.29 6.26,2.42 17.04,1.76 33.35,-2.28l2.83 8.99 -103.91 32.78 -2.84 -8.99c12.71,-6.75 20.75,-12.58 23.99,-18 5.47,-10.52 10.07,-28.99 12.5,-56.14l30.51 -308.99 8.5 -2.68 201.74 239.03c16.43,19 29.49,30.79 39.03,34.93 9.54,4.13 21.14,4.32 34.94,1.06l2.84 8.99 -130.4 41.13 -2.83 -8.99c12.83,-4.59 21.03,-9.93 24.42,-14.85 3.24,-5.41 4.32,-10.69 2.59,-16.19 -2.2,-7 -8.83,-17.55 -20.06,-30.49l-35.11 -41.65zm-12.67 -15.78l-98.03 -115.74 -15.88 151.67 113.91 -35.93zm-85.55 -313.03l-45.47 106.62 -7.99 2.52 -1 -91.97 54.46 -17.18z"/>
   <path id="_13_12" class="fil4" d="M6010.1 8065.63l-3.54 -8.74 113.64 -45.98 3.54 8.74 -11.66 4.71c-13.11,5.31 -20.66,14.58 -23.14,28.02 -0.95,6.03 1.63,17.98 8.9,35.95l52.86 130.63c12.97,32.05 20.07,58 20.55,78.71 0.96,20.52 -5.59,40.69 -18.93,60.77 -13.63,20.78 -36.33,37.31 -68.86,50.48 -34.96,14.14 -64.22,18.64 -87.11,13.76 -23.35,-4.68 -42.66,-16.07 -58.68,-33.33 -10.55,-12.11 -23.59,-37.35 -39.31,-76.21l-50.89 -125.78c-8.06,-19.91 -16.07,-31.36 -23.97,-35.51 -8.39,-3.94 -18.31,-3.32 -30.45,1.59l-12.14 4.91 -3.54 -8.74 139.38 -56.39 3.54 8.74 -12.63 5.1c-13.11,5.31 -21.06,13.61 -23.05,24.03 -2.01,7.59 0.76,20.04 8.03,38l56.79 140.34c4.91,12.14 12.26,26.13 20.69,41.37 8.91,15.04 18.39,25.9 27.94,32.77 9.37,6.39 21.25,10.62 34.78,11.92 14.01,1.12 28.79,-1.48 45.3,-8.15 20.88,-8.45 37.86,-20.97 50.63,-36.87 13.27,-16.1 19.72,-32.28 19.86,-48.72 0.41,-17.13 -6.5,-42.59 -20.25,-76.58l-52.66 -130.15c-8.06,-19.91 -15.11,-31.75 -21.64,-35.32 -9.07,-4.24 -19.67,-3.91 -31.81,1l-12.14 4.91z"/>
   <path id="_14_13" class="fil4" d="M6371.61 7883.1l39.57 71 -8.9 4.45c-7.74,-11.95 -14.76,-20.15 -20.14,-23.91 -9.14,-6.55 -18.98,-9.85 -29.06,-10.08 -9.61,-0.47 -21.09,2.34 -34.2,8.89l-43.58 21.77 118.46 237.13c9.61,19.21 17.33,29.99 23.89,32.57 9.36,3.52 19.92,2.35 31.63,-3.5l10.78 -5.39 4.21 8.44 -131.21 65.55 -4.21 -8.43 10.78 -5.39c13.12,-6.55 20.39,-15.45 22.27,-25.76 0.7,-6.79 -3.52,-18.74 -12.18,-36.08l-118.47 -237.13 -37.01 18.5c-14.53,7.26 -24.14,13.82 -29.29,18.73 -6.56,6.79 -10.79,15.93 -12.2,27.17 -1.64,10.78 0.7,23.67 6.78,38.19l-8.91 4.45 -32.54 -74.51 253.53 -126.66z"/>
   <path id="_15_14" class="fil4" d="M6676.31 8095.18l4.65 8.2 -129.41 73.39 -4.65 -8.2 10.48 -5.94c12.76,-7.24 19.81,-16.06 21.14,-26.45 1.07,-6.62 -3.58,-19.04 -13.91,-37.27l-110.61 -195.02c-8.53,-15.04 -15.39,-25 -20.25,-28.27 -3.43,-2.88 -8.43,-4.25 -14.54,-4.4 -8.44,-0.03 -16.32,2.02 -23.6,6.16l-10.48 5.94 -4.65 -8.2 129.4 -73.39 4.65 8.2 -10.92 6.2c-12.31,6.98 -19.35,15.8 -20.69,26.19 -1.52,6.88 3.12,19.3 13.46,37.53l110.61 195.02c8.53,15.04 15.12,24.55 20.24,28.27 3.43,2.87 8.44,4.25 14.55,4.4 8.44,0.03 16.31,-2.02 23.6,-6.16l10.93 -6.2z"/>
   <path id="_16_15" class="fil4" d="M6756.57 7630.02l72.57 93.22 -6.51 4.4c-28.64,-23.63 -55.31,-35.94 -80.18,-38.1 -24.99,-1.41 -48.93,5.29 -71.48,20.55 -19.09,12.92 -33.22,29.44 -41.94,49.26 -8.87,20.54 -10.75,43.95 -5.04,71.07 5.72,27.14 18.85,56.83 39.98,88.07 17.62,26.03 37.23,45.65 58.39,59.17 21.16,13.51 43.72,19.75 67.4,18.27 23.67,-1.47 46.28,-9.18 67.54,-23.56 18.65,-12.62 32.5,-27.69 41.54,-45.19 8.73,-17.93 13.79,-44.12 14.56,-79.43l9.44 -0.07c3.01,35.29 -1.29,65.39 -12.46,90.03 -11.16,24.63 -30.04,46.27 -56.51,64.18 -47.29,32 -96.21,39.16 -146.02,21.63 -37.14,-12.82 -68.25,-37.3 -92.33,-72.88 -19.38,-28.63 -30.78,-59.5 -33.9,-92.17 -3.57,-32.38 1.6,-63.07 15.05,-91.79 13.75,-28.28 34.08,-51.53 60.55,-69.43 20.82,-14.1 44.45,-23.12 71.88,-26.51 7.69,-0.77 13.21,-1.98 15.81,-3.74 3.91,-2.64 6.06,-6 7.03,-11.09 1.12,-5.81 -0.09,-13.22 -2.76,-20.9l7.37 -4.99z"/>
   <path id="_17_16" class="fil4" d="M7100.31 7666.47l-105.16 84.05 15.93 57.69c4,14.24 8.17,23.65 12.09,28.56 3.6,4.5 7.86,6.47 14.56,6.47 6.71,0 16.53,-4.49 30.28,-14.14l5.88 7.37 -85.12 68.03 -5.88 -7.37c9.41,-10.88 14.81,-19.22 15.88,-25.43 1.31,-11.79 -1.05,-30.68 -8.57,-56.87l-82.91 -299.22 6.96 -5.56 274.33 150.25c22.17,11.8 38.61,18.1 49,18.51 10.39,0.43 21.27,-3.58 32.98,-11.59l5.88 7.36 -106.81 85.37 -5.88 -7.37c10.31,-8.9 16.04,-16.84 17.43,-22.65 1.07,-6.21 0.18,-11.53 -3.42,-16.04 -4.58,-5.73 -14.56,-13.18 -29.7,-21.2l-47.77 -26.2zm-17.5 -10.15l-133.15 -72.62 39.86 147.19 93.29 -74.56z"/>
   <path id="path7-8" class="fil5" d="M3682.03 7864.1c-84.44,-13.8 -163.9,-45.14 -389.25,-153.51 -406.08,-195.28 -395.39,-189.42 -386.81,-211.79 6.89,-17.94 45.52,-36.43 107,-51.19 158.35,-38.02 490.43,-113.65 579.49,-131.98 262.74,-54.04 553.3,-95.54 671.72,-95.93l20.67 -0.07 22.78 -50.66 22.78 -50.66 -45.62 -92.24c-25.09,-50.73 -57.34,-107.77 -71.66,-126.74 -44.22,-58.59 -48.84,-67.69 -48.84,-96.39l0 -27.82 44.8 -53.66c24.64,-29.51 55.49,-70.38 68.56,-90.81 13.07,-20.43 35.35,-49.98 49.52,-65.66 32.05,-35.47 144.88,-123.2 224.16,-174.31l59.79 -38.53 25.3 -43.17 25.3 -43.17 -2.45 -77.13c-1.35,-42.42 -4.7,-79.38 -7.43,-82.12 -4.31,-4.31 -107.19,37.5 -258.47,105.05l-43.05 19.22 0 21.64c0,11.91 -5.1,25.88 -11.33,31.05l-11.33 9.41 -6.79 -10.77 -6.79 -10.77 -31.82 9.73c-17.5,5.35 -38.59,12.95 -46.86,16.9 -8.27,3.94 -19.78,5.36 -25.58,3.13 -5.8,-2.23 -30.03,4.71 -53.86,15.4 -23.82,10.69 -108.42,48.08 -188,83.06 -79.57,34.99 -195.83,86.22 -258.35,113.84 -62.53,27.62 -203.58,89.84 -313.46,138.26l-199.79 88.04 -86.15 86.67c-47.38,47.67 -100.11,105.26 -117.18,127.99 -45.51,60.61 -188.74,154.82 -235.55,154.95 -37.65,0.1 -56.73,-11.37 -90.45,-54.33 -61.44,-78.27 -74.4,-119.45 -47.66,-151.38 6.63,-7.92 56.37,-40.84 110.54,-73.14l98.48 -58.74 70.3 -10.48c38.67,-5.76 121.77,-22.83 184.66,-37.92 111.64,-26.79 148,-40.6 371.35,-141.03 47.65,-21.43 328.17,-144.11 378.91,-165.71 20.85,-8.87 107.65,-46.88 192.9,-84.46l155.01 -68.33 4.02 -24.61c4.2,-25.77 53.32,-95.58 79.18,-112.51 8.17,-5.36 29.99,-36.71 48.49,-69.67 18.51,-32.98 47.23,-78.4 63.83,-100.95l30.19 -41 5.77 -51.49c4.06,-36.16 10.84,-59.15 22.79,-77.21 19.88,-30.04 98,-84.06 164.07,-113.46 34.75,-15.45 46.34,-24.05 46.41,-34.39 0.18,-25.69 -30.75,-110.57 -46.4,-127.37 -22.68,-24.35 -44.6,-110.95 -34.79,-137.47 4.37,-11.82 2.9,-19.61 -5.43,-28.83l-11.42 -12.62 10.46 -4.02c16.83,-6.46 54.55,-57.52 56.65,-76.69 2.31,-21.04 16.92,-31.93 29.18,-21.75 6.39,5.31 9.91,4.27 13.02,-3.84 2.46,-6.41 12.1,-11.11 22.81,-11.11 10.21,0 22.19,-3.64 26.64,-8.08 12.63,-12.63 40.05,3.43 53.22,31.18 6.23,13.12 19.63,27.31 29.78,31.54 10.15,4.22 32,20.59 48.55,36.37l30.09 28.69 -3.9 32.94 -3.9 32.94 18.6 14.98 18.6 14.98 -22.39 -4.25 -22.39 -4.25 0 16.21c0,8.92 -4.65,27.34 -10.33,40.95 -13.73,32.86 -13.07,61.93 1.72,75.16 6.63,5.93 30.66,16.11 53.39,22.62 22.74,6.51 55.29,18.75 72.34,27.2 17.05,8.45 44.47,17.44 60.91,19.97 44.06,6.78 76.88,26.75 107.87,65.61 15.16,19.01 36.76,38.55 48.01,43.43 11.25,4.88 36.46,17.04 56.03,27.03l35.57 18.15 6 -28.48 6 -28.48 27.53 -4.89c15.14,-2.69 36.83,-6.7 48.2,-8.9 15.63,-3.03 25.7,0.1 41.34,12.84l20.67 16.86 0 93.1 0 93.1 -16.71 17.79c-20.57,21.9 -59.23,23.68 -101.17,4.63 -15.57,-7.07 -41.92,-15.06 -58.56,-17.76 -16.63,-2.69 -47.45,-13.53 -68.47,-24.07l-38.24 -19.17 -17.32 9.08 -17.32 9.08 -8.66 84.04c-4.76,46.22 -16.41,110.75 -25.88,143.41 -9.47,32.65 -21.57,77.97 -26.9,100.71l-9.68 41.34 11.08 65.2c14.06,82.74 9.6,178.22 -10.46,223.56 -16.46,37.23 -64.5,89.64 -144.08,157.2 -42.62,36.19 -70.24,67.61 -107,121.77 -58.1,85.58 -110.63,142.36 -137.98,149.15 -14.63,3.63 -24.69,1 -40.29,-10.53 -11.43,-8.45 -23.19,-12.72 -26.14,-9.49 -2.94,3.23 -13.65,35.32 -23.81,71.32 -10.15,36 -27.18,82.97 -37.87,104.37 -19.13,38.37 -19.12,58 0.03,50.94 16.53,-6.1 27.88,6.75 31.8,35.98l3.75 27.94 34.98 13.29c19.24,7.31 36.02,16.4 37.28,20.2 6.47,19.42 -232.66,260.76 -344.2,347.39 -126.64,98.35 -255.72,172.03 -366.98,209.47 -67.52,22.72 -153.33,27.77 -237.69,13.98l0 -0.05zm748.39 -1002.7c3.88,-18.94 5.84,-34.45 4.34,-34.45 -1.49,0 -13.47,8.2 -26.62,18.24l-23.91 18.24 15.23 16.21c8.38,8.92 17.18,16.21 19.55,16.21 2.38,0 7.5,-15.5 11.39,-34.45l0.01 0zm118.03 -758.15l98.25 -43.49 -4.32 -14.26c-2.38,-7.84 -19.25,-33.77 -37.49,-57.62 -18.24,-23.84 -34.75,-47.09 -36.7,-51.67 -5.65,-13.33 -39.49,29.83 -72.88,92.95 -16.64,31.45 -43.99,75.19 -60.77,97.19l-30.52 40 23.09 -9.8c12.7,-5.39 67.3,-29.37 121.33,-53.29l0.01 -0.01z"/>
  </g>
 </g>
</svg>
